<svg xmlns="http://www.w3.org/2000/svg" xmlns:xlink="http://www.w3.org/1999/xlink" width="2000" zoomAndPan="magnify" viewBox="0 0 1500 1499.999933" height="2000" preserveAspectRatio="xMidYMid meet" version="1.0"><defs><clipPath id="eb51094a27"><path d="M 225 294.683594 L 1275 294.683594 L 1275 1205.183594 L 225 1205.183594 Z M 225 294.683594 " clip-rule="nonzero"/></clipPath></defs><rect x="-150" width="1800" fill="#ffffff" y="-149.999993" height="1799.99992" fill-opacity="1"/><rect x="-150" width="1800" fill="#122539" y="-149.999993" height="1799.99992" fill-opacity="1"/><g clip-path="url(#eb51094a27)"><path fill="#122539" d="M 225.59375 294.683594 L 1274.40625 294.683594 L 1274.40625 1205.183594 L 225.59375 1205.183594 Z M 225.59375 294.683594 " fill-opacity="1" fill-rule="nonzero"/></g><path fill="#d5a940" d="M 335.453125 963.183594 L 335.453125 913.410156 L 346.609375 913.410156 C 354.335938 913.410156 364.636719 914.269531 364.636719 927.140625 C 364.636719 937.4375 358.628906 941.730469 344.035156 941.730469 L 344.035156 964.039062 L 335.453125 964.039062 Z M 344.035156 918.558594 L 344.035156 934.863281 C 351.761719 934.863281 354.335938 932.289062 354.335938 926.28125 C 354.335938 921.992188 352.617188 917.699219 344.894531 917.699219 L 344.035156 917.699219 Z M 344.035156 918.558594 " fill-opacity="1" fill-rule="nonzero"/><path fill="#d5a940" d="M 371.5 913.410156 L 382.660156 913.410156 C 389.523438 913.410156 400.683594 913.410156 400.683594 926.28125 C 400.683594 930.574219 398.964844 938.296875 391.242188 939.15625 L 404.117188 963.183594 L 394.675781 963.183594 L 381.800781 938.296875 L 381.800781 963.183594 L 371.5 963.183594 Z M 390.382812 927.140625 C 390.382812 921.992188 389.523438 918.558594 382.660156 918.558594 L 380.941406 918.558594 L 380.941406 934.863281 C 387.808594 935.722656 390.382812 932.289062 390.382812 927.140625 Z M 390.382812 927.140625 " fill-opacity="1" fill-rule="nonzero"/><path fill="#d5a940" d="M 446.171875 938.296875 C 446.171875 947.734375 446.171875 964.039062 428.148438 964.039062 C 410.125 964.039062 410.125 947.734375 410.125 938.296875 C 410.125 928.855469 410.125 912.550781 428.148438 912.550781 C 445.3125 912.550781 446.171875 928.855469 446.171875 938.296875 Z M 418.707031 938.296875 C 418.707031 948.59375 419.5625 958.035156 427.289062 958.035156 C 435.011719 958.035156 435.871094 949.453125 435.871094 938.296875 C 435.871094 928 435.011719 918.558594 427.289062 918.558594 C 419.5625 918.558594 418.707031 928 418.707031 938.296875 Z M 418.707031 938.296875 " fill-opacity="1" fill-rule="nonzero"/><path fill="#d5a940" d="M 472.777344 951.167969 C 472.777344 958.035156 471.0625 964.039062 459.046875 964.039062 C 456.46875 964.039062 453.039062 964.039062 451.320312 962.324219 L 451.320312 955.460938 C 453.039062 956.316406 455.613281 957.175781 457.328125 957.175781 C 463.335938 957.175781 463.335938 953.742188 463.335938 950.308594 L 463.335938 913.410156 L 472.777344 913.410156 Z M 472.777344 951.167969 " fill-opacity="1" fill-rule="nonzero"/><path fill="#d5a940" d="M 509.683594 913.410156 L 509.683594 919.417969 L 493.375 919.417969 L 493.375 934.863281 L 507.964844 934.863281 L 507.964844 940.871094 L 493.375 940.871094 L 493.375 958.035156 L 509.683594 958.035156 L 509.683594 964.039062 L 484.792969 964.039062 L 484.792969 914.269531 L 509.683594 914.269531 Z M 509.683594 913.410156 " fill-opacity="1" fill-rule="nonzero"/><path fill="#d5a940" d="M 569.761719 936.578125 C 569.761719 946.878906 571.480469 964.039062 552.597656 964.039062 C 535.429688 964.039062 533.714844 952.886719 533.714844 938.296875 C 533.714844 924.566406 535.429688 912.550781 551.738281 912.550781 C 562.039062 912.550781 566.328125 915.984375 568.902344 922.847656 L 560.320312 925.425781 C 559.464844 921.992188 557.746094 918.558594 552.597656 918.558594 C 544.871094 918.558594 544.015625 926.28125 544.015625 938.296875 C 544.015625 955.460938 548.304688 958.035156 552.597656 958.035156 C 556.03125 958.035156 560.320312 958.035156 560.320312 946.019531 L 560.320312 943.445312 L 552.597656 943.445312 L 552.597656 937.4375 L 569.761719 937.4375 Z M 569.761719 936.578125 " fill-opacity="1" fill-rule="nonzero"/><path fill="#d5a940" d="M 604.953125 913.410156 L 604.953125 919.417969 L 588.644531 919.417969 L 588.644531 934.863281 L 603.234375 934.863281 L 603.234375 940.871094 L 588.644531 940.871094 L 588.644531 958.035156 L 604.953125 958.035156 L 604.953125 964.039062 L 580.0625 964.039062 L 580.0625 914.269531 L 604.953125 914.269531 Z M 604.953125 913.410156 " fill-opacity="1" fill-rule="nonzero"/><path fill="#d5a940" d="M 621.257812 913.410156 L 621.257812 958.035156 L 637.566406 958.035156 L 637.566406 964.039062 L 611.816406 964.039062 L 611.816406 914.269531 L 621.257812 914.269531 Z M 621.257812 913.410156 " fill-opacity="1" fill-rule="nonzero"/><path fill="#d5a940" d="M 642.714844 913.410156 L 652.15625 913.410156 L 652.15625 963.183594 L 642.714844 963.183594 Z M 642.714844 913.410156 " fill-opacity="1" fill-rule="nonzero"/><path fill="#d5a940" d="M 685.628906 921.132812 C 683.054688 920.273438 680.480469 919.417969 677.90625 919.417969 C 672.753906 919.417969 669.320312 921.992188 669.320312 925.425781 C 669.320312 928 670.179688 928.855469 671.898438 930.574219 L 678.761719 935.722656 C 684.769531 940.011719 689.0625 943.445312 689.0625 950.308594 C 689.0625 957.175781 683.054688 963.183594 672.753906 963.183594 C 669.320312 963.183594 665.03125 962.324219 662.457031 960.609375 L 662.457031 953.742188 C 665.03125 955.460938 668.464844 956.316406 671.898438 956.316406 C 677.90625 956.316406 680.480469 952.882812 680.480469 949.453125 C 680.480469 939.15625 660.738281 937.4375 660.738281 924.566406 C 660.738281 917.699219 665.890625 911.695312 677.046875 911.695312 C 680.480469 911.695312 683.914062 911.695312 687.347656 913.410156 Z M 685.628906 921.132812 " fill-opacity="1" fill-rule="nonzero"/><path fill="#d5a940" d="M 722.535156 913.410156 L 722.535156 919.417969 L 712.234375 919.417969 L 712.234375 964.039062 L 702.796875 964.039062 L 702.796875 919.417969 L 691.636719 919.417969 L 691.636719 913.410156 Z M 722.535156 913.410156 " fill-opacity="1" fill-rule="nonzero"/><path fill="#d5a940" d="M 727.683594 913.410156 L 737.125 913.410156 L 737.125 963.183594 L 727.683594 963.183594 Z M 727.683594 913.410156 " fill-opacity="1" fill-rule="nonzero"/><path fill="#d5a940" d="M 748.285156 913.410156 L 759.441406 913.410156 C 766.308594 913.410156 777.464844 913.410156 777.464844 926.28125 C 777.464844 930.574219 775.75 938.296875 768.023438 939.15625 L 780.898438 963.183594 L 771.457031 963.183594 L 758.582031 938.296875 L 758.582031 963.183594 L 749.140625 963.183594 L 749.140625 913.410156 Z M 767.164062 927.140625 C 767.164062 921.992188 766.308594 918.558594 759.441406 918.558594 L 757.722656 918.558594 L 757.722656 934.863281 C 765.449219 935.722656 767.164062 932.289062 767.164062 927.140625 Z M 767.164062 927.140625 " fill-opacity="1" fill-rule="nonzero"/><path fill="#d5a940" d="M 798.0625 913.410156 L 808.363281 949.453125 L 808.363281 947.734375 L 810.9375 935.722656 L 816.945312 913.410156 L 825.527344 913.410156 L 832.394531 963.183594 L 822.953125 963.183594 L 821.238281 944.304688 L 820.378906 934.863281 L 820.378906 928 L 818.660156 934.863281 L 810.9375 962.324219 L 804.070312 962.324219 L 794.628906 928 L 792.054688 962.324219 L 783.472656 962.324219 L 789.480469 912.550781 L 798.0625 912.550781 Z M 798.0625 913.410156 " fill-opacity="1" fill-rule="nonzero"/><path fill="#d5a940" d="M 865.867188 913.410156 L 865.867188 919.417969 L 849.558594 919.417969 L 849.558594 934.863281 L 864.148438 934.863281 L 864.148438 940.871094 L 849.558594 940.871094 L 849.558594 958.035156 L 865.867188 958.035156 L 865.867188 964.039062 L 840.976562 964.039062 L 840.976562 914.269531 L 865.867188 914.269531 Z M 865.867188 913.410156 " fill-opacity="1" fill-rule="nonzero"/><path fill="#d5a940" d="M 896.765625 913.410156 L 905.347656 936.578125 L 907.0625 930.574219 L 913.070312 914.269531 L 923.371094 914.269531 L 910.496094 942.585938 L 910.496094 964.039062 L 901.054688 964.039062 L 901.054688 942.585938 L 887.324219 914.269531 L 896.765625 914.269531 Z M 896.765625 913.410156 " fill-opacity="1" fill-rule="nonzero"/><path fill="#d5a940" d="M 964.570312 938.296875 C 964.570312 947.734375 964.570312 964.039062 946.542969 964.039062 C 928.519531 964.039062 928.519531 947.734375 928.519531 938.296875 C 928.519531 928.855469 928.519531 912.550781 946.542969 912.550781 C 964.570312 912.550781 964.570312 928.855469 964.570312 938.296875 Z M 932.8125 904.828125 C 932.8125 903.113281 935.386719 901.394531 937.960938 901.394531 C 940.535156 901.394531 943.113281 903.113281 943.113281 904.828125 C 943.113281 906.542969 940.535156 908.261719 937.960938 908.261719 C 935.386719 908.261719 932.8125 907.402344 932.8125 904.828125 Z M 937.960938 938.296875 C 937.960938 948.59375 938.820312 958.035156 946.542969 958.035156 C 954.269531 958.035156 955.128906 949.453125 955.128906 938.296875 C 955.128906 928 954.269531 918.558594 946.542969 918.558594 C 938.820312 918.558594 937.960938 928 937.960938 938.296875 Z M 948.261719 904.828125 C 948.261719 903.113281 950.835938 901.394531 953.410156 901.394531 C 955.984375 901.394531 958.558594 903.113281 958.558594 904.828125 C 958.558594 906.542969 955.984375 908.261719 953.410156 908.261719 C 950.835938 908.261719 948.261719 907.402344 948.261719 904.828125 Z M 948.261719 904.828125 " fill-opacity="1" fill-rule="nonzero"/><path fill="#d5a940" d="M 982.59375 928 L 984.308594 945.160156 L 984.308594 963.183594 L 974.867188 963.183594 L 974.867188 913.410156 L 984.308594 913.410156 L 1000.617188 951.167969 L 998.042969 931.429688 L 998.042969 913.410156 L 1007.480469 913.410156 L 1007.480469 963.183594 L 998.898438 963.183594 L 982.59375 924.566406 Z M 982.59375 928 " fill-opacity="1" fill-rule="nonzero"/><path fill="#d5a940" d="M 1043.53125 913.410156 L 1043.53125 919.417969 L 1027.222656 919.417969 L 1027.222656 934.863281 L 1041.8125 934.863281 L 1041.8125 940.871094 L 1027.222656 940.871094 L 1027.222656 958.035156 L 1043.53125 958.035156 L 1043.53125 964.039062 L 1017.78125 964.039062 L 1017.78125 914.269531 L 1043.53125 914.269531 Z M 1043.53125 913.410156 " fill-opacity="1" fill-rule="nonzero"/><path fill="#d5a940" d="M 1076.144531 913.410156 L 1076.144531 919.417969 L 1065.84375 919.417969 L 1065.84375 964.039062 L 1056.402344 964.039062 L 1056.402344 919.417969 L 1045.246094 919.417969 L 1045.246094 913.410156 Z M 1076.144531 913.410156 " fill-opacity="1" fill-rule="nonzero"/><path fill="#d5a940" d="M 1081.292969 913.410156 L 1090.734375 913.410156 L 1090.734375 963.183594 L 1081.292969 963.183594 Z M 1081.292969 913.410156 " fill-opacity="1" fill-rule="nonzero"/><path fill="#d5a940" d="M 1113.050781 913.410156 L 1123.347656 949.453125 L 1123.347656 947.734375 L 1125.925781 935.722656 L 1131.933594 913.410156 L 1140.515625 913.410156 L 1147.382812 963.183594 L 1137.941406 963.183594 L 1136.222656 944.304688 L 1135.363281 934.863281 L 1135.363281 928 L 1133.648438 934.863281 L 1125.925781 962.324219 L 1119.058594 962.324219 L 1109.617188 928 L 1107.042969 962.324219 L 1098.460938 962.324219 L 1104.46875 912.550781 L 1113.050781 912.550781 Z M 1113.050781 913.410156 " fill-opacity="1" fill-rule="nonzero"/><path fill="#d5a940" d="M 1155.105469 913.410156 L 1164.546875 913.410156 L 1164.546875 963.183594 L 1155.105469 963.183594 Z M 1155.105469 913.410156 " fill-opacity="1" fill-rule="nonzero"/><path fill="#d5a940" d="M 643.574219 907.402344 C 643.574219 905.6875 645.289062 903.96875 647.867188 903.96875 C 650.441406 903.96875 652.15625 905.6875 652.15625 907.402344 C 652.15625 909.117188 650.441406 910.835938 647.867188 910.835938 C 645.289062 910.835938 643.574219 909.117188 643.574219 907.402344 Z M 643.574219 907.402344 " fill-opacity="1" fill-rule="nonzero"/><path fill="#d5a940" d="M 727.683594 907.402344 C 727.683594 905.6875 729.402344 903.96875 731.976562 903.96875 C 734.550781 903.96875 736.269531 905.6875 736.269531 907.402344 C 736.269531 909.117188 734.550781 910.835938 731.976562 910.835938 C 729.402344 910.835938 727.683594 909.117188 727.683594 907.402344 Z M 727.683594 907.402344 " fill-opacity="1" fill-rule="nonzero"/><path fill="#d5a940" d="M 1081.292969 907.402344 C 1081.292969 905.6875 1083.011719 903.96875 1085.585938 903.96875 C 1088.160156 903.96875 1089.875 905.6875 1089.875 907.402344 C 1089.875 909.117188 1088.160156 910.835938 1085.585938 910.835938 C 1083.867188 910.835938 1081.292969 909.117188 1081.292969 907.402344 Z M 1081.292969 907.402344 " fill-opacity="1" fill-rule="nonzero"/><path fill="#d5a940" d="M 1155.964844 907.402344 C 1155.964844 905.6875 1157.679688 903.96875 1160.253906 903.96875 C 1162.828125 903.96875 1164.546875 905.6875 1164.546875 907.402344 C 1164.546875 909.117188 1162.828125 910.835938 1160.253906 910.835938 C 1157.679688 910.835938 1155.964844 909.117188 1155.964844 907.402344 Z M 1155.964844 907.402344 " fill-opacity="1" fill-rule="nonzero"/><path fill="#d5a940" d="M 677.90625 962.324219 L 676.1875 964.898438 C 678.761719 964.898438 681.339844 966.617188 681.339844 968.332031 C 681.339844 970.90625 677.90625 972.621094 674.472656 972.621094 C 672.753906 972.621094 671.039062 972.621094 669.320312 971.765625 L 670.179688 969.191406 C 671.039062 969.191406 672.753906 970.046875 674.472656 970.046875 C 676.1875 970.046875 677.046875 969.191406 677.046875 968.332031 C 677.046875 966.617188 674.472656 966.617188 671.898438 966.617188 L 674.472656 963.183594 " fill-opacity="1" fill-rule="nonzero"/><path fill="#d5a940" d="M 692.496094 828.453125 C 692.496094 828.453125 609.242188 807 618.683594 732.339844 C 628.125 657.679688 763.730469 552.984375 813.511719 540.972656 L 800.636719 527.242188 L 861.574219 528.957031 L 832.394531 577.015625 L 826.386719 561.566406 C 826.386719 561.566406 732.835938 601.902344 683.054688 695.4375 C 683.054688 695.4375 641.859375 782.96875 692.496094 828.453125 Z M 692.496094 828.453125 " fill-opacity="1" fill-rule="nonzero"/><path fill="#d5a940" d="M 772.316406 606.191406 C 772.316406 606.191406 799.78125 609.625 811.796875 629.359375 L 855.566406 578.730469 L 937.960938 712.601562 L 937.960938 833.601562 L 1014.347656 833.601562 L 1014.347656 715.175781 L 1119.058594 539.253906 L 1035.804688 539.253906 L 976.585938 644.808594 L 918.222656 539.253906 L 865.867188 539.253906 L 831.535156 594.175781 L 822.09375 571.863281 Z M 772.316406 606.191406 " fill-opacity="1" fill-rule="nonzero"/><path fill="#d5a940" d="M 683.914062 716.035156 C 683.914062 716.035156 642.714844 813.863281 728.542969 837.035156 C 728.542969 837.035156 812.652344 850.765625 870.160156 798.417969 L 870.160156 666.261719 L 739.699219 666.261719 L 739.699219 728.90625 L 800.636719 728.90625 L 800.636719 761.515625 C 800.636719 761.515625 753.433594 782.96875 713.09375 759.800781 C 713.09375 758.941406 688.203125 746.929688 683.914062 716.035156 Z M 683.914062 716.035156 " fill-opacity="1" fill-rule="nonzero"/><path fill="#d5a940" d="M 616.109375 613.914062 C 616.109375 613.914062 604.953125 529.816406 479.644531 540.113281 L 380.941406 539.253906 L 380.941406 835.316406 L 455.613281 835.316406 L 455.613281 752.933594 L 510.542969 752.933594 C 510.542969 752.933594 574.910156 752.078125 601.519531 710.027344 L 609.242188 734.914062 C 609.242188 734.914062 630.699219 629.363281 798.921875 543.546875 C 798.0625 542.6875 670.179688 503.210938 616.109375 613.914062 Z M 544.015625 645.667969 C 544.015625 667.121094 526.847656 683.425781 506.25 683.425781 L 457.328125 683.425781 L 457.328125 607.050781 L 506.25 607.050781 C 526.847656 607.90625 544.015625 625.070312 544.015625 645.667969 Z M 544.015625 645.667969 " fill-opacity="1" fill-rule="nonzero"/></svg>